<?xml version="1.0" encoding="utf-8"?>
<!-- Generator: Adobe Illustrator 25.4.1, SVG Export Plug-In . SVG Version: 6.00 Build 0)  -->
<svg version="1.1" id="Layer_1" xmlns="http://www.w3.org/2000/svg" xmlns:xlink="http://www.w3.org/1999/xlink" x="0px" y="0px"
	 viewBox="0 0 209 207" style="enable-background:new 0 0 209 207;" xml:space="preserve">
<style type="text/css">
	.st0{fill:url(#SVGID_1_);stroke:#000000;stroke-miterlimit:10;}
	.st1{fill:url(#SVGID_00000137105290521004544210000006853715010707601296_);stroke:#534B47;stroke-miterlimit:10;}
	.st2{fill:#FFFFFF;stroke:#56504A;stroke-miterlimit:10;}
</style>
<linearGradient id="SVGID_1_" gradientUnits="userSpaceOnUse" x1="30.2911" y1="40.1381" x2="175.7433" y2="166.5296">
	<stop  offset="0" style="stop-color:#656669"/>
	<stop  offset="0.1218" style="stop-color:#535355"/>
	<stop  offset="0.37" style="stop-color:#343233"/>
	<stop  offset="0.6057" style="stop-color:#1E1A1B"/>
	<stop  offset="0.8218" style="stop-color:#110B0C"/>
	<stop  offset="1" style="stop-color:#0C0607"/>
</linearGradient>
<path class="st0" d="M202.6,104.4c0,54.3-44,98.3-98.3,98.3C50,202.7,6,158.7,6,104.4C6,50.1,50,6.1,104.3,6.1
	C158.6,6.1,202.6,50.1,202.6,104.4z"/>
<linearGradient id="SVGID_00000024698478935960762830000003554855025856060829_" gradientUnits="userSpaceOnUse" x1="24.0722" y1="19.1393" x2="158.4881" y2="155.5623">
	<stop  offset="0" style="stop-color:#E5E2DF"/>
	<stop  offset="0" style="stop-color:#DED9D6"/>
	<stop  offset="3.472453e-02" style="stop-color:#D3CECB"/>
	<stop  offset="0.2176" style="stop-color:#9E9998"/>
	<stop  offset="0.3966" style="stop-color:#726D6D"/>
	<stop  offset="0.5679" style="stop-color:#504B4B"/>
	<stop  offset="0.7297" style="stop-color:#373333"/>
	<stop  offset="0.8779" style="stop-color:#282425"/>
	<stop  offset="1" style="stop-color:#231F20"/>
</linearGradient>
<path style="fill:url(#SVGID_00000024698478935960762830000003554855025856060829_);stroke:#534B47;stroke-miterlimit:10;" d="
	M89.4,18.4c8.2-10.3,21.6-10.3,29.7,0l1.4,1.7c8.2,10.3,25.6,18.6,38.7,18.6h2.2c13.1,0,21.5,10.5,18.5,23.2l-0.5,2.2
	c-2.9,12.8,1.4,31.6,9.6,41.9l1.4,1.7c8.2,10.3,5.2,23.3-6.6,29l-2,1c-11.8,5.7-23.9,20.8-26.8,33.6l-0.5,2.2
	c-2.9,12.8-15,18.6-26.8,12.9l-2-1c-11.8-5.7-31.1-5.7-43,0l-2,1c-11.8,5.7-23.9-0.1-26.8-12.9l-0.5-2.2
	c-2.9-12.8-15-27.9-26.8-33.6l-2-1c-11.8-5.7-14.8-18.7-6.6-29l1.4-1.7C27.7,95.8,32,77,29,64.2L28.5,62
	C25.6,49.2,34,38.8,47.1,38.8h2.2c13.1,0,30.5-8.4,38.7-18.6L89.4,18.4z"/>
<path class="st2" d="M111.1,71.8c0,3.8-3.1,6.8-6.8,6.8l0,0c-3.8,0-6.8-3.1-6.8-6.8V27.3c0-3.8,3.1-6.8,6.8-6.8l0,0
	c3.8,0,6.8,3.1,6.8,6.8V71.8z"/>
</svg>
